<svg style="overflow: hidden; position: absolute; left: 20px; top: 20px;" height="300" version="1.1" width="600" xmlns="http://www.w3.org/2000/svg"><desc style="-webkit-tap-highlight-color: rgba(0, 0, 0, 0);">Created with Raphaël 2.1.0</desc><defs style="-webkit-tap-highlight-color: rgba(0, 0, 0, 0);"></defs><rect style="-webkit-tap-highlight-color: rgba(0, 0, 0, 0);" x="0" y="0" width="600" height="300" r="0" rx="0" ry="0" fill="#000066" stroke="#000" stroke-width="0"></rect><path style="-webkit-tap-highlight-color: rgba(0, 0, 0, 0);" fill="#ffffff" stroke="#000000" d="M0,100H250V0H350V100H600V200H350V300H250V200H0Z" stroke-width="0"></path><path style="-webkit-tap-highlight-color: rgba(0, 0, 0, 0);" fill="#ffffff" stroke="#000000" d="M0,0H67.08L600,266.46V300H532.92L0,33.54" stroke-width="0"></path><path style="-webkit-tap-highlight-color: rgba(0, 0, 0, 0);" fill="#ffffff" stroke="#000000" d="M0,266.46V300H67.08L600,33.54V0H532.92" stroke-width="0"></path><path style="-webkit-tap-highlight-color: rgba(0, 0, 0, 0);" fill="#cc0000" stroke="#000000" d="M0,120H270V0H330V120H600V180H330V300H270V180H0Z" stroke-width="0"></path><path style="-webkit-tap-highlight-color: rgba(0, 0, 0, 0);" fill="#cc0000" stroke="#000000" d="M0,0L200,100H155.28L0,22.36" stroke-width="0"></path><path style="-webkit-tap-highlight-color: rgba(0, 0, 0, 0);" fill="#cc0000" stroke="#000000" d="M0,300L200,200H244.72L44.72,300" stroke-width="0"></path><path style="-webkit-tap-highlight-color: rgba(0, 0, 0, 0);" fill="#cc0000" stroke="#000000" d="M0,300L200,200H244.72L44.72,300" stroke-width="0" transform="matrix(-1,0,0,-1,600,300)"></path><path style="-webkit-tap-highlight-color: rgba(0, 0, 0, 0);" fill="#cc0000" stroke="#000000" d="M0,0L200,100H155.28L0,22.36" stroke-width="0" transform="matrix(-1,0,0,-1,600,300)"></path></svg>